<?xml version="1.0" encoding="utf-8"?>

<!DOCTYPE svg PUBLIC "-//W3C//DTD SVG 1.1//EN" "http://www.w3.org/Graphics/SVG/1.1/DTD/svg11.dtd">
<!-- Uploaded to: SVG Repo, www.svgrepo.com, Generator: SVG Repo Mixer Tools -->
<svg version="1.1" id="_x32_" xmlns="http://www.w3.org/2000/svg" xmlns:xlink="http://www.w3.org/1999/xlink" 
	 viewBox="0 0 512 512"  xml:space="preserve">
<style type="text/css">
	.st0{fill:#20c997;}
</style>
<g>
	<path class="st0" d="M407.696,59.356c0-23.878-19.36-43.238-43.247-43.238c-23.888,0-43.238,19.36-43.238,43.238
		s19.351,43.247,43.238,43.247C388.336,102.604,407.696,83.234,407.696,59.356z"/>
	<path class="st0" d="M480.706,512l-59.187-252.312l0.554-36.005l25.066,100.389c1.331,9.198,9.858,15.582,19.056,14.252
		c9.206-1.33,15.574-9.867,14.252-19.066l-22.03-137.376c-0.089-0.5-0.206-0.973-0.304-1.473l19.717,0.268l-1.786-5.778
		c-0.259-0.804-25.111-81.118-38.201-114.578C426.172,30.495,408.33,0,364.449,0c-44.122,0-62.392,32.237-73.394,60.321
		c-13.092,33.459-37.944,113.774-38.193,114.578l-1.786,5.778l19.932-0.277c-0.17,0.509-0.358,0.973-0.536,1.482l-21.512,69.438
		l-13.126-78.76c-6.822-33.273-25.62-51.302-53.445-57.705l-48.274,82.896l-48.275-82.896
		c-27.826,6.403-54.526,21.664-54.526,57.928V315.16c-0.438,9.287,6.724,17.163,16.012,17.61c9.287,0.437,17.162-6.725,17.6-16.012
		l7.947-86.476l8.653,259.777c0,12.118,9.822,21.941,21.94,21.941c12.109,0,21.931-9.824,21.931-21.941l8.716-135.759l8.715,135.759
		c0,12.118,9.822,21.941,21.931,21.941c12.118,0,21.94-9.824,21.94-21.941l8.662-259.777l30.986,89.825
		c0.804,3.697,2.786,6.796,5.447,9.099c2.108,2.992,5.153,5.349,8.938,6.466c8.912,2.607,18.262-2.51,20.87-11.43l45.229-100.559
		l0.545,35.63L248.192,512H480.706z M134.114,266.117c-3.037,0-5.492-2.447-5.492-5.492c0-3.027,2.455-5.492,5.492-5.492
		c3.036,0,5.492,2.465,5.492,5.492C139.606,263.67,137.15,266.117,134.114,266.117z M134.114,231.184
		c-3.037,0-5.492-2.464-5.492-5.501c0-3.027,2.455-5.491,5.492-5.491c3.036,0,5.492,2.464,5.492,5.491
		C139.606,228.72,137.15,231.184,134.114,231.184z M161.349,181.15l0.982-6.84l20.896-3.706l1.563,10.546H161.349z M274.463,171.56
		l-11.404,0.161c5.947-19.056,25.254-80.262,36.184-108.194c10.599-27.066,26.62-54.74,65.205-54.74
		c38.488,0,54.088,26.308,65.206,54.74c10.939,27.933,30.236,89.138,36.192,108.194l-9.974-0.134
		c-14.243-45.006-62.794-55.454-91.424-55.454C335.704,116.132,295.368,123.821,274.463,171.56z M316.541,257.589l-0.813-65.33
		h97.442l-0.821,65.33l-0.009,0.875l0.17,0.857l56.534,243.882h-209.19l56.535-243.882l0.16-0.857L316.541,257.589z"/>
	<path class="st0" d="M134.122,95.468c23.879,0,43.239-19.369,43.239-43.247s-19.36-43.247-43.239-43.247
		c-23.887,0-43.246,19.369-43.246,43.247S110.234,95.468,134.122,95.468z"/>
	<rect x="124.344" y="113.364" class="st0" width="19.538" height="9.76"/>
	<polygon class="st0" points="124.344,159.665 134.114,176.265 143.882,159.665 143.882,129.742 124.344,129.742 	"/>
</g>
</svg>