<?xml version="1.0" encoding="iso-8859-1"?>
<!-- Uploaded to: SVG Repo, www.svgrepo.com, Generator: SVG Repo Mixer Tools -->
<svg fill="#20c997" height="800px" width="800px" version="1.1" id="Layer_1" xmlns="http://www.w3.org/2000/svg" xmlns:xlink="http://www.w3.org/1999/xlink" 
	 viewBox="0 0 512 512" xml:space="preserve">
<g>
	<g>
		<path d="M503.83,0H8.17C3.658,0,0,3.658,0,8.17v495.66c0,4.512,3.658,8.17,8.17,8.17h495.66c4.513,0,8.17-3.658,8.17-8.17V8.17
			C512,3.658,508.343,0,503.83,0z M484.105,16.34l-38.128,38.128H66.022L27.894,16.34H484.105z M441.191,70.809v370.383H70.809
			V70.809H441.191z M16.34,27.894l38.128,38.128v379.955L16.34,484.105V27.894z M27.894,495.66l38.128-38.128h379.955l38.128,38.128
			H27.894z M495.66,484.105l-38.128-38.128V66.023l38.128-38.128V484.105z"/>
	</g>
</g>
<g>
	<g>
		<path d="M416.681,87.149H95.319c-4.512,0-8.17,3.658-8.17,8.17v321.362c0,4.512,3.658,8.17,8.17,8.17h321.362
			c4.513,0,8.17-3.658,8.17-8.17V95.319C424.851,90.807,421.194,87.149,416.681,87.149z M408.511,408.511H103.489V103.489h305.021
			V408.511z"/>
	</g>
</g>
<g>
	<g>
		<path d="M369.082,378.664c-8.419-9.768-18.053-18.38-28.657-25.669V215.149c0-46.553-37.874-84.426-84.426-84.426
			s-84.426,37.873-84.426,84.426v137.858c-10.346,7.1-19.859,15.533-28.256,25.196c-2.96,3.406-2.598,8.567,0.808,11.526
			c1.547,1.344,3.456,2.003,5.356,2.003c2.283,0,4.555-0.952,6.17-2.812c25.275-29.089,61.851-45.772,100.347-45.772
			c6.388,0,12.774,0.459,19.064,1.361v12.845c0,4.512,3.657,8.17,8.17,8.17h46.553c9.995,6.688,19.051,14.68,26.916,23.807
			c1.615,1.876,3.898,2.837,6.193,2.837c1.889,0,3.788-0.651,5.331-1.982C371.646,387.241,372.028,382.083,369.082,378.664z
			 M231.489,171.574c21.234,0,38.959,15.271,42.796,35.404h-85.59C192.531,186.845,210.256,171.574,231.489,171.574z
			 M275.064,328.026c-6.306-0.804-12.686-1.218-19.064-1.218c-23.957,0-47.247,5.763-68.085,16.45v-63.747
			c14.45,18.803,37.146,30.956,62.638,30.956c4.512,0,8.17-3.658,8.17-8.17c0-4.512-3.658-8.17-8.17-8.17
			c-34.539,0-62.638-28.102-62.638-62.645v-8.164h87.149V328.026z M324.085,349.184h-32.681V215.149
			c0-33.037-26.878-59.915-59.915-59.915c-3.069,0-6.084,0.232-9.031,0.68c9.906-5.631,21.356-8.85,33.541-8.85
			c37.543,0,68.085,30.544,68.085,68.085V349.184z"/>
	</g>
</g>
</svg>